<svg xmlns="http://www.w3.org/2000/svg"  viewBox="0 0 40 40" width="512px" height="512px"><path fill="#fff" d="M6.5 37.5L6.5 2.5 24.793 2.5 33.5 11.207 33.5 37.5z"/><path fill="#4788c7" d="M24.586,3L33,11.414V37H7V3H24.586 M25,2H6v36h28V11L25,2L25,2z"/><path fill="#dff0fe" d="M24.5 11.5L24.5 2.5 24.793 2.5 33.5 11.207 33.5 11.5z"/><path fill="#4788c7" d="M25 3.414L32.586 11H25V3.414M25 2h-1v10h10v-1L25 2 25 2zM27.5 17h-15c-.276 0-.5-.224-.5-.5v0c0-.276.224-.5.5-.5h15c.276 0 .5.224.5.5v0C28 16.776 27.776 17 27.5 17zM23.5 20h-11c-.276 0-.5-.224-.5-.5v0c0-.276.224-.5.5-.5h11c.276 0 .5.224.5.5v0C24 19.776 23.776 20 23.5 20zM27.5 23h-15c-.276 0-.5-.224-.5-.5v0c0-.276.224-.5.5-.5h15c.276 0 .5.224.5.5v0C28 22.776 27.776 23 27.5 23zM23.5 26h-11c-.276 0-.5-.224-.5-.5v0c0-.276.224-.5.5-.5h11c.276 0 .5.224.5.5v0C24 25.776 23.776 26 23.5 26zM27.5 29h-15c-.276 0-.5-.224-.5-.5v0c0-.276.224-.5.5-.5h15c.276 0 .5.224.5.5v0C28 28.776 27.776 29 27.5 29z"/></svg>