<svg width="49" height="49" viewBox="0 0 49 49" fill="none" xmlns="http://www.w3.org/2000/svg">
<path fill-rule="evenodd" clip-rule="evenodd" d="M35.456 36.16H25.1408C19.071 36.16 13.4489 31.2339 12.9488 25.185C12.3427 17.8598 18.3181 11.7693 25.6064 12.1818C31.5389 12.5178 36.407 17.2781 36.8672 23.2022C37.1542 26.896 35.7702 30.2669 33.391 32.6464L35.8803 35.1357C36.2582 35.5136 35.9907 36.16 35.456 36.16ZM25.6951 0.173763C11.8179 -0.270717 0.473306 11.0746 0.918106 24.952C1.32099 37.5162 11.5562 47.7466 24.1207 48.1485C37.9975 48.5923 49.3373 37.2518 48.8928 23.375C48.4903 10.8102 38.2599 0.576003 25.6951 0.173763Z" fill="#043054"/>
</svg>
