<svg xmlns="http://www.w3.org/2000/svg"  viewBox="0 0 40 40" width="512px" height="512px"><path fill="#dff0fe" d="M1.5,0C4.388,9.125,10.894,19.51,18,26.12l1.5-10.012C15.931,11.882,12.488,5.137,10.405,0"/><path fill="none" stroke="#4788c7" stroke-linecap="round" stroke-miterlimit="2" d="M1.669,0.5C4.633,9.503,11.023,19.63,18,26.12l1.5-10.012c-3.455-4.091-6.789-10.54-8.888-15.608"/><path fill="#dff0fe" d="M40,30c-6.994-3.249-15.35-7.956-20.5-13.721v10.733c5.437,4.832,13.737,9.401,20.5,11.737"/><path fill="none" stroke="#4788c7" stroke-linecap="round" stroke-miterlimit="2" d="M39.5,29.764c-6.889-3.239-14.971-7.856-20-13.485v10.733c5.305,4.715,13.331,9.173,20,11.557"/><path fill="#b6dcfe" d="M0 40L2.453 40 10.206 32.002 8 29.578 0 37.578z"/><path fill="#4788c7" d="M2.505 40c-.126 0-.252-.047-.35-.143-.197-.193-.201-.509-.008-.707l8.162-8.354c.192-.197.509-.2.707-.008.197.193.201.509.008.707L2.862 39.85C2.765 39.95 2.635 40 2.505 40zM.5 38c-.126 0-.252-.047-.35-.143-.197-.193-.201-.509-.008-.707l8.162-8.354c.192-.197.509-.2.707-.008.197.193.201.509.008.707L.857 37.85C.76 37.95.63 38 .5 38z"/><path fill="#dff0fe" d="M25.31,34.611C16.367,30.101,9.944,23.51,5.686,14.473c2.29-6.32,7.839-8.544,10.007-9.187c3.46,7.825,11.845,16.388,19.057,19.471C33.273,29.472,30.099,32.785,25.31,34.611z"/><path fill="#4788c7" d="M11.957 14.511l.479.894c-.24.236-.275.601-.094.94.318.593 1.081.646 1.97.148 0 0-.01-.018-.015-.027-.003-.006-.011-.021-.011-.021l-.003-.006c-.513.02-.958-.257-1.227-.76-.439-.819-.157-1.745.669-2.188.897-.481 1.902-.136 2.42.831.333.622.33 1.271-.016 1.841-.243.438-.674.827-1.264 1.142-1.436.77-2.667.558-3.269-.568C11.158 15.916 11.305 15.018 11.957 14.511zM15.055 15.922c.437-.234.594-.752.357-1.196-.237-.443-.755-.604-1.186-.374-.443.237-.587.739-.345 1.19C14.123 15.993 14.621 16.155 15.055 15.922zM14.524 18.971l.65.779c-.187.279-.148.644.097.939.43.517 1.189.416 1.959-.253 0 0-.013-.016-.019-.023-.004-.006-.016-.018-.016-.018l-.004-.005c-.498.123-.99-.059-1.355-.497-.595-.714-.505-1.678.215-2.277.783-.652 1.836-.517 2.537.326.452.542.579 1.178.356 1.806-.149.478-.494.946-1.008 1.373-1.252 1.042-2.5 1.083-3.316.102C14.025 20.508 13.987 19.599 14.524 18.971zM17.841 19.73c.381-.317.43-.857.108-1.244-.322-.386-.861-.441-1.237-.128-.386.321-.426.841-.098 1.235C16.943 19.988 17.463 20.044 17.841 19.73zM17.863 22.793l.776.649c-.134.307-.03.659.263.904.514.43 1.24.195 1.876-.597 0 0-.016-.014-.023-.019-.005-.004-.018-.016-.018-.016l-.005-.004c-.467.209-.982.119-1.418-.246-.711-.595-.794-1.556-.194-2.272.651-.778 1.709-.834 2.547-.133.54.452.778 1.054.671 1.709-.062.496-.316 1.016-.744 1.527-1.042 1.246-2.259 1.508-3.235.691C17.647 24.39 17.448 23.504 17.863 22.793zM21.252 22.946c.317-.38.269-.918-.115-1.239-.384-.322-.923-.279-1.236.095-.322.384-.269.901.123 1.229S20.937 23.323 21.252 22.946zM21.132 26.314c.188-.286.522-.359.824-.161.306.201.367.535.179.821s-.521.365-.826.163C21.005 26.938 20.943 26.601 21.132 26.314zM23.392 26.928l.903.463c-.062.33.116.651.457.825.598.307 1.256-.084 1.703-.999 0 0-.018-.01-.027-.014-.006-.003-.021-.011-.021-.011l-.006-.003c-.411.308-.934.334-1.442.073-.827-.424-1.121-1.346-.693-2.179.465-.906 1.487-1.194 2.461-.693.628.322.995.857 1.035 1.522.049.498-.084 1.064-.389 1.658-.744 1.449-1.875 1.974-3.011 1.392C23.535 28.538 23.144 27.716 23.392 26.928zM26.741 26.327c.227-.441.06-.957-.387-1.186-.447-.229-.964-.068-1.187.367-.229.448-.063.941.393 1.175C26.016 26.917 26.516 26.765 26.741 26.327z"/><path fill="#4788c7" d="M20,5c8.411,0,15,6.589,15,15s-6.589,15-15,15S5,28.411,5,20S11.589,5,20,5 M20,4C11.006,4,4,11.006,4,20s7.006,16,16,16s16-7.006,16-16S28.994,4,20,4L20,4z"/><path fill="#fff" d="M20,7c7.289,0,13,5.711,13,13s-5.711,13-13,13S7,27.289,7,20S12.711,7,20,7 M20,5C11.568,5,5,11.568,5,20s6.568,15,15,15s15-6.568,15-15S28.432,5,20,5L20,5z"/><path fill="none" stroke="#4788c7" stroke-linecap="round" stroke-miterlimit="10" d="M7.519 18.134c3.486 5.967 8.091 10.729 13.943 14.407M32.172 23.395c-5.749-3.365-11.73-9.521-15.191-15.661"/></svg>