<svg xmlns="http://www.w3.org/2000/svg"  viewBox="0 0 40 40" width="512px" height="512px"><path fill="#b6dcfe" d="M27.953,20.5l-0.21-2.101l-0.354-0.078c-1.508-0.331-2.863-1.115-3.917-2.268l-0.245-0.267 l-1.93,0.871l-1.047-1.814l1.711-1.23l-0.109-0.345C21.618,12.533,21.5,11.77,21.5,11s0.118-1.533,0.351-2.268l0.109-0.345 l-1.711-1.23l1.047-1.814l1.93,0.871l0.245-0.267c1.055-1.153,2.409-1.938,3.917-2.268l0.354-0.078l0.21-2.101h2.095l0.21,2.101 l0.354,0.078c1.508,0.331,2.863,1.115,3.917,2.268l0.245,0.267l1.93-0.871l1.047,1.814l-1.711,1.23l0.109,0.345 C36.382,9.467,36.5,10.23,36.5,11s-0.118,1.533-0.351,2.268l-0.109,0.345l1.711,1.23l-1.047,1.814l-1.93-0.871l-0.245,0.267 c-1.055,1.153-2.409,1.938-3.917,2.268l-0.354,0.078l-0.21,2.101H27.953z M29,6.5c-2.481,0-4.5,2.019-4.5,4.5s2.019,4.5,4.5,4.5 s4.5-2.019,4.5-4.5S31.481,6.5,29,6.5z"/><path fill="#4788c7" d="M29.595,2l0.129,1.289l0.072,0.722l0.709,0.155c1.407,0.308,2.671,1.04,3.656,2.117l0.489,0.535 l0.66-0.298l1.187-0.536l0.595,1.031l-1.05,0.754l-0.589,0.423l0.219,0.691C35.89,9.569,36,10.281,36,11 c0,0.719-0.11,1.431-0.327,2.116l-0.219,0.691l0.589,0.423l1.05,0.754l-0.595,1.031L35.31,15.48l-0.66-0.298l-0.489,0.535 c-0.984,1.076-2.249,1.809-3.656,2.117l-0.709,0.155l-0.072,0.722L29.595,20h-1.19l-0.129-1.289l-0.072-0.722l-0.709-0.155 c-1.407-0.308-2.671-1.04-3.656-2.117l-0.489-0.535l-0.66,0.298l-1.187,0.536l-0.595-1.031l1.05-0.754l0.589-0.423l-0.219-0.691 C22.11,12.431,22,11.719,22,11c0-0.719,0.11-1.431,0.327-2.116l0.219-0.691L21.958,7.77l-1.05-0.754l0.595-1.031L22.69,6.52 l0.66,0.298l0.489-0.535c0.985-1.077,2.249-1.809,3.656-2.117l0.709-0.155l0.072-0.722L28.405,2H29.595 M29,16c2.757,0,5-2.243,5-5 s-2.243-5-5-5s-5,2.243-5,5S26.243,16,29,16 M30.5,1h-3l-0.219,2.19c-1.64,0.359-3.086,1.224-4.179,2.419L21.09,4.701l-1.5,2.598 l1.784,1.283C21.132,9.345,21,10.157,21,11s0.132,1.655,0.374,2.418l-1.784,1.283l1.5,2.598l2.012-0.908 c1.093,1.195,2.54,2.06,4.179,2.419L27.5,21h3l0.219-2.19c1.64-0.359,3.086-1.223,4.179-2.419l2.012,0.908l1.5-2.598l-1.784-1.283 C36.868,12.655,37,11.843,37,11s-0.132-1.655-0.374-2.418l1.784-1.283l-1.5-2.598l-2.012,0.908c-1.093-1.195-2.54-2.06-4.179-2.419 L30.5,1L30.5,1z M29,15c-2.209,0-4-1.791-4-4s1.791-4,4-4s4,1.791,4,4S31.209,15,29,15L29,15z"/><g><path fill="#dff0fe" d="M11.953,38.5l-0.32-3.199l-0.34-0.086c-1.616-0.408-3.082-1.253-4.241-2.444L6.807,32.52 l-2.926,1.32l-1.547-2.68l2.608-1.875l-0.096-0.337C4.617,28.134,4.5,27.311,4.5,26.5s0.117-1.634,0.346-2.448l0.096-0.337 L2.334,21.84l1.547-2.68l2.926,1.32l0.245-0.251c1.159-1.191,2.625-2.036,4.241-2.444l0.34-0.086l0.32-3.199h3.095l0.32,3.199 l0.34,0.086c1.616,0.408,3.082,1.253,4.241,2.444l0.245,0.251l2.926-1.32l1.547,2.68l-2.608,1.875l0.096,0.337 c0.229,0.814,0.346,1.638,0.346,2.448s-0.117,1.634-0.346,2.448l-0.096,0.337l2.608,1.875l-1.547,2.68l-2.926-1.32l-0.245,0.251 c-1.159,1.191-2.625,2.036-4.241,2.444l-0.34,0.086l-0.32,3.199H11.953z M13.5,21.5c-2.757,0-5,2.243-5,5s2.243,5,5,5s5-2.243,5-5 S16.257,21.5,13.5,21.5z"/><path fill="#4788c7" d="M14.595,15l0.24,2.399l0.07,0.698l0.68,0.172c1.526,0.386,2.911,1.184,4.005,2.308l0.489,0.503 l0.639-0.288l2.194-0.99l1.095,1.897l-1.956,1.406l-0.569,0.409l0.191,0.675C21.89,24.957,22,25.735,22,26.5 s-0.11,1.543-0.327,2.312l-0.191,0.675l0.569,0.409l1.956,1.406l-1.095,1.897l-2.194-0.99l-0.639-0.288l-0.489,0.503 c-1.094,1.125-2.479,1.923-4.005,2.308l-0.68,0.172l-0.07,0.698L14.595,38h-2.19l-0.24-2.399l-0.07-0.698l-0.68-0.172 c-1.526-0.386-2.911-1.184-4.005-2.308L6.921,31.92l-0.639,0.288l-2.194,0.99l-1.095-1.897l1.956-1.406l0.569-0.409l-0.191-0.675 C5.11,28.043,5,27.265,5,26.5s0.11-1.543,0.327-2.312l0.191-0.675l-0.569-0.409l-1.956-1.406l1.095-1.897l2.194,0.99l0.639,0.288 l0.489-0.503c1.094-1.125,2.479-1.923,4.005-2.308l0.68-0.172l0.07-0.698L12.405,15H14.595 M13.5,32c3.033,0,5.5-2.467,5.5-5.5 S16.533,21,13.5,21S8,23.467,8,26.5S10.467,32,13.5,32 M15.5,14h-4l-0.33,3.3c-1.73,0.437-3.271,1.341-4.476,2.581l-3.019-1.362 l-2,3.464l2.69,1.934C4.133,24.739,4,25.603,4,26.5s0.133,1.761,0.365,2.584l-2.69,1.934l2,3.464l3.019-1.362 c1.206,1.239,2.747,2.144,4.477,2.581L11.5,39h4l0.33-3.3c1.73-0.437,3.271-1.341,4.477-2.581l3.019,1.362l2-3.464l-2.69-1.934 C22.867,28.261,23,27.397,23,26.5s-0.133-1.761-0.365-2.584l2.69-1.934l-2-3.464l-3.019,1.362 c-1.206-1.239-2.747-2.143-4.476-2.581L15.5,14L15.5,14z M13.5,31C11.015,31,9,28.985,9,26.5s2.015-4.5,4.5-4.5s4.5,2.015,4.5,4.5 S15.985,31,13.5,31L13.5,31z"/></g></svg>